<svg width="703" height="82" viewBox="0 0 703 82" fill="none" xmlns="http://www.w3.org/2000/svg">
<path d="M-0.000607759 80.2969V2.21775H28.5148C36.3065 2.21775 42.9618 3.7328 48.481 6.7629C54.0001 9.79299 58.2386 14.1939 61.1965 19.9655C64.1545 25.7371 65.6335 32.7352 65.6335 40.9597V41.0679C65.6335 49.2925 64.1545 56.3447 61.1965 62.2245C58.2747 68.0683 54.0361 72.5413 48.481 75.6435C42.9618 78.7458 36.3065 80.2969 28.5148 80.2969H-0.000607759ZM13.9595 68.5552H27.0538C32.3204 68.5552 36.7574 67.5091 40.3646 65.4169C43.9719 63.2886 46.7134 60.2044 48.5892 56.1643C50.4649 52.0881 51.4028 47.074 51.4028 41.122V41.0138C51.4028 35.2061 50.4469 30.2822 48.5351 26.2421C46.6593 22.202 43.8997 19.1538 40.2564 17.0977C36.6491 15.0055 32.2483 13.9594 27.0538 13.9594H13.9595V68.5552ZM72.4274 80.2969V22.9415H85.9005V80.2969H72.4274ZM79.1369 14.7169C77.0447 14.7169 75.2771 13.9955 73.8342 12.5525C72.3913 11.1096 71.6699 9.37816 71.6699 7.35809C71.6699 5.30196 72.3913 3.57047 73.8342 2.16364C75.2771 0.720737 77.0447 -0.00071466 79.1369 -0.00071466C81.2652 -0.00071466 83.0508 0.720737 84.4937 2.16364C85.9366 3.57047 86.658 5.30196 86.658 7.35809C86.658 9.37816 85.9366 11.1096 84.4937 12.5525C83.0508 13.9955 81.2652 14.7169 79.1369 14.7169ZM94.0471 80.2969V22.9415H107.466V32.14H107.791C108.981 29.0016 110.983 26.4946 113.797 24.6188C116.611 22.707 119.911 21.7511 123.699 21.7511C126.368 21.7511 128.767 22.22 130.895 23.1579C133.024 24.0597 134.827 25.3764 136.306 27.1078C137.821 28.8033 138.921 30.8774 139.607 33.3304H139.877C140.815 30.9496 142.15 28.9115 143.881 27.2161C145.649 25.4846 147.705 24.1499 150.05 23.212C152.431 22.238 154.992 21.7511 157.733 21.7511C161.521 21.7511 164.804 22.5627 167.581 24.186C170.395 25.7732 172.577 28.0097 174.128 30.8955C175.715 33.7452 176.509 37.0999 176.509 40.9597V80.2969H163.036V44.2604C163.036 41.8796 162.639 39.8595 161.846 38.2002C161.052 36.5408 159.898 35.2783 158.383 34.4125C156.868 33.5468 154.992 33.1139 152.755 33.1139C150.591 33.1139 148.679 33.6189 147.02 34.629C145.396 35.6029 144.116 36.9737 143.178 38.7412C142.276 40.5088 141.825 42.5469 141.825 44.8556V80.2969H128.731V43.5569C128.731 41.3926 128.316 39.5348 127.486 37.9837C126.657 36.4326 125.484 35.2422 123.969 34.4125C122.454 33.5468 120.651 33.1139 118.558 33.1139C116.394 33.1139 114.482 33.637 112.823 34.6831C111.164 35.7292 109.847 37.1541 108.873 38.9577C107.935 40.7613 107.466 42.8355 107.466 45.1802V80.2969H94.0471ZM209.221 81.4332C203.486 81.4332 198.544 80.2247 194.395 77.8079C190.283 75.391 187.127 71.9641 184.926 67.5272C182.726 63.0902 181.626 57.8417 181.626 51.7815V51.7274C181.626 45.7033 182.726 40.4547 184.926 35.9817C187.163 31.4726 190.283 27.9736 194.287 25.4846C198.327 22.9956 203.089 21.7511 208.572 21.7511C214.019 21.7511 218.726 22.9595 222.694 25.3764C226.698 27.7571 229.764 31.1119 231.893 35.4406C234.057 39.7693 235.139 44.8195 235.139 50.5911V54.9198H188.281V45.9377H228.7L222.207 54.3246V49.1302C222.207 45.3786 221.63 42.2583 220.476 39.7693C219.321 37.2803 217.734 35.4226 215.714 34.1961C213.694 32.9336 211.367 32.3023 208.734 32.3023C206.065 32.3023 203.684 32.9516 201.592 34.2502C199.536 35.5128 197.912 37.4066 196.722 39.9316C195.568 42.4567 194.991 45.5229 194.991 49.1302V54.3246C194.991 57.8237 195.568 60.8177 196.722 63.3067C197.912 65.7596 199.59 67.6534 201.754 68.9881C203.918 70.2867 206.498 70.936 209.492 70.936C211.728 70.936 213.694 70.5933 215.39 69.908C217.085 69.1865 218.474 68.2667 219.556 67.1484C220.674 66.0302 221.45 64.8217 221.883 63.5231L221.991 63.1444H234.544L234.436 63.7396C233.967 65.94 233.101 68.1043 231.839 70.2326C230.576 72.3248 228.881 74.2186 226.752 75.9141C224.624 77.6095 222.099 78.9622 219.177 79.9722C216.255 80.9462 212.937 81.4332 209.221 81.4332ZM240.418 80.2969V22.9415H253.837V31.9235H254.162C255.641 28.8213 257.841 26.3503 260.763 24.5106C263.721 22.6709 267.364 21.7511 271.693 21.7511C278.006 21.7511 282.876 23.6629 286.303 27.4866C289.765 31.3103 291.497 36.5408 291.497 43.1782V80.2969H278.024V45.8836C278.024 41.8074 277.068 38.6691 275.156 36.4687C273.244 34.2322 270.376 33.1139 266.553 33.1139C263.992 33.1139 261.755 33.7091 259.843 34.8995C257.931 36.0538 256.452 37.6771 255.406 39.7693C254.36 41.8255 253.837 44.2423 253.837 47.0199V80.2969H240.418ZM321.395 81.4332C316.381 81.4332 312.089 80.6937 308.517 79.2147C304.982 77.7357 302.205 75.6615 300.185 72.9922C298.201 70.2867 296.992 67.1665 296.559 63.6313L296.505 63.1444H309.762L309.87 63.6313C310.375 66.1203 311.566 68.0502 313.441 69.421C315.353 70.7917 318.023 71.4771 321.449 71.4771C323.65 71.4771 325.526 71.2066 327.077 70.6655C328.628 70.1244 329.818 69.3308 330.648 68.2847C331.514 67.2386 331.947 66.0121 331.947 64.6053V64.5512C331.947 62.8558 331.369 61.485 330.215 60.4389C329.061 59.3567 326.987 58.473 323.993 57.7876L314.469 55.6773C310.826 54.8477 307.778 53.7114 305.325 52.2685C302.872 50.8256 301.032 49.04 299.806 46.9117C298.579 44.7473 297.966 42.2403 297.966 39.3906V39.3364C297.966 35.8374 298.922 32.7712 300.834 30.1379C302.746 27.5046 305.433 25.4485 308.896 23.9695C312.359 22.4905 316.381 21.7511 320.963 21.7511C325.724 21.7511 329.8 22.5447 333.191 24.1318C336.582 25.719 339.197 27.8473 341.037 30.5167C342.913 33.1861 343.923 36.1801 344.067 39.4988L344.121 40.094H331.568L331.514 39.6611C331.225 37.3525 330.179 35.4586 328.375 33.9797C326.572 32.4646 324.101 31.7071 320.963 31.7071C318.979 31.7071 317.247 31.9957 315.768 32.5728C314.325 33.15 313.207 33.9616 312.413 35.0077C311.656 36.0538 311.277 37.2803 311.277 38.6871V38.7412C311.277 39.8234 311.548 40.7974 312.089 41.6631C312.63 42.5289 313.495 43.2864 314.686 43.9357C315.876 44.5489 317.463 45.09 319.447 45.559L328.971 47.6692C334.923 49.0039 339.161 50.9157 341.686 53.4048C344.211 55.8577 345.474 59.1583 345.474 63.3067V63.3608C345.474 66.9681 344.446 70.1424 342.39 72.884C340.333 75.5894 337.484 77.6996 333.84 79.2147C330.233 80.6937 326.085 81.4332 321.395 81.4332ZM351.131 80.2969V22.9415H364.605V80.2969H351.131ZM357.841 14.7169C355.749 14.7169 353.981 13.9955 352.538 12.5525C351.095 11.1096 350.374 9.37816 350.374 7.35809C350.374 5.30196 351.095 3.57047 352.538 2.16364C353.981 0.720737 355.749 -0.00071466 357.841 -0.00071466C359.969 -0.00071466 361.755 0.720737 363.198 2.16364C364.641 3.57047 365.362 5.30196 365.362 7.35809C365.362 9.37816 364.641 11.1096 363.198 12.5525C361.755 13.9955 359.969 14.7169 357.841 14.7169ZM398.128 81.4332C392.501 81.4332 387.613 80.2428 383.465 77.862C379.316 75.4451 376.088 72.0182 373.779 67.5813C371.507 63.1083 370.37 57.7876 370.37 51.6192V51.5109C370.37 45.3786 371.525 40.094 373.833 35.657C376.142 31.184 379.371 27.7571 383.519 25.3764C387.667 22.9595 392.519 21.7511 398.074 21.7511C403.665 21.7511 408.535 22.9595 412.684 25.3764C416.868 27.7571 420.115 31.166 422.423 35.6029C424.732 40.0399 425.886 45.3425 425.886 51.5109V51.6192C425.886 57.8237 424.732 63.1624 422.423 67.6354C420.151 72.0723 416.94 75.4812 412.792 77.862C408.643 80.2428 403.756 81.4332 398.128 81.4332ZM398.182 70.5573C401.032 70.5573 403.503 69.8178 405.595 68.3388C407.687 66.8598 409.293 64.7135 410.411 61.8999C411.565 59.0501 412.142 55.6232 412.142 51.6192V51.5109C412.142 47.543 411.565 44.1521 410.411 41.3385C409.257 38.5248 407.615 36.3785 405.487 34.8995C403.395 33.4205 400.924 32.6811 398.074 32.6811C395.297 32.6811 392.844 33.4205 390.715 34.8995C388.623 36.3785 386.982 38.5248 385.791 41.3385C384.637 44.1521 384.06 47.543 384.06 51.5109V51.6192C384.06 55.6232 384.637 59.0501 385.791 61.8999C386.982 64.7135 388.623 66.8598 390.715 68.3388C392.844 69.8178 395.333 70.5573 398.182 70.5573ZM431.219 80.2969V22.9415H444.638V31.9235H444.963C446.442 28.8213 448.642 26.3503 451.564 24.5106C454.522 22.6709 458.165 21.7511 462.494 21.7511C468.807 21.7511 473.677 23.6629 477.103 27.4866C480.566 31.3103 482.298 36.5408 482.298 43.1782V80.2969H468.825V45.8836C468.825 41.8074 467.869 38.6691 465.957 36.4687C464.045 34.2322 461.177 33.1139 457.354 33.1139C454.793 33.1139 452.556 33.7091 450.644 34.8995C448.732 36.0538 447.253 37.6771 446.207 39.7693C445.161 41.8255 444.638 44.2423 444.638 47.0199V80.2969H431.219ZM512.196 81.4332C507.182 81.4332 502.89 80.6937 499.318 79.2147C495.783 77.7357 493.006 75.6615 490.986 72.9922C489.002 70.2867 487.793 67.1665 487.36 63.6313L487.306 63.1444H500.563L500.671 63.6313C501.176 66.1203 502.366 68.0502 504.242 69.421C506.154 70.7917 508.823 71.4771 512.25 71.4771C514.451 71.4771 516.327 71.2066 517.878 70.6655C519.429 70.1244 520.619 69.3308 521.449 68.2847C522.315 67.2386 522.748 66.0121 522.748 64.6053V64.5512C522.748 62.8558 522.17 61.485 521.016 60.4389C519.862 59.3567 517.788 58.473 514.794 57.7876L505.27 55.6773C501.627 54.8477 498.579 53.7114 496.126 52.2685C493.673 50.8256 491.833 49.04 490.607 46.9117C489.38 44.7473 488.767 42.2403 488.767 39.3906V39.3364C488.767 35.8374 489.723 32.7712 491.635 30.1379C493.547 27.5046 496.234 25.4485 499.697 23.9695C503.16 22.4905 507.182 21.7511 511.763 21.7511C516.525 21.7511 520.601 22.5447 523.992 24.1318C527.383 25.719 529.998 27.8473 531.838 30.5167C533.714 33.1861 534.724 36.1801 534.868 39.4988L534.922 40.094H522.369L522.315 39.6611C522.026 37.3525 520.98 35.4586 519.176 33.9797C517.373 32.4646 514.902 31.7071 511.763 31.7071C509.779 31.7071 508.048 31.9957 506.569 32.5728C505.126 33.15 504.008 33.9616 503.214 35.0077C502.457 36.0538 502.078 37.2803 502.078 38.6871V38.7412C502.078 39.8234 502.348 40.7974 502.89 41.6631C503.431 42.5289 504.296 43.2864 505.487 43.9357C506.677 44.5489 508.264 45.09 510.248 45.559L519.772 47.6692C525.724 49.0039 529.962 50.9157 532.487 53.4048C535.012 55.8577 536.275 59.1583 536.275 63.3067V63.3608C536.275 66.9681 535.247 70.1424 533.191 72.884C531.134 75.5894 528.285 77.6996 524.641 79.2147C521.034 80.6937 516.886 81.4332 512.196 81.4332ZM548.858 81.1626C546.658 81.1626 544.8 80.4051 543.285 78.89C541.77 77.375 541.013 75.5353 541.013 73.3709C541.013 71.1705 541.77 69.3128 543.285 67.7977C544.8 66.2827 546.658 65.5251 548.858 65.5251C551.023 65.5251 552.862 66.2827 554.377 67.7977C555.892 69.3128 556.65 71.1705 556.65 73.3709C556.65 75.5353 555.892 77.375 554.377 78.89C552.862 80.4051 551.023 81.1626 548.858 81.1626ZM565.229 80.2969V2.21775H615.01V13.9594H579.19V37.0639H611.925V48.4267H579.19V80.2969H565.229ZM621.858 80.2969V2.21775H637.982L661.898 61.8999H662.277L686.193 2.21775H702.318V80.2969H689.764V24.727H683.325L697.556 4.38211L666.822 80.2969H657.353L626.619 4.38211L640.85 24.727H634.411V80.2969H621.858Z" fill="black"/>
</svg>
