<svg width="970" height="203" viewBox="0 0 970 203" fill="none" xmlns="http://www.w3.org/2000/svg">
<g clip-path="url(#clip0_206_4422)">
<path d="M78.9476 151.894C62.2686 151.894 48.0284 148.505 36.2272 141.727C24.4575 134.95 15.583 125.79 9.60368 114.252C3.6244 102.713 0.634766 89.8189 0.634766 75.569C0.634766 62.3909 3.6244 50.0483 9.60368 38.5412C15.6144 27.034 24.662 17.7336 36.7465 10.6402C48.8309 3.54672 63.5431 7.57903e-07 80.883 0C85.1944 -1.8845e-07 89.5373 0.220671 93.9116 0.662051C98.2859 1.10343 102.707 1.797 107.176 2.74279C111.645 3.65707 116.051 4.83931 120.393 6.28953C123.131 7.20381 125.365 8.29146 127.097 9.55251C128.859 10.782 130.227 12.2796 131.203 14.045C132.211 15.8106 132.95 17.9544 133.422 20.4765C133.988 24.0074 134.508 27.7118 134.98 31.5895C135.451 35.4357 135.86 39.3135 136.207 43.2227C136.459 47.1321 135.247 50.1428 132.573 52.2551C129.898 54.3674 126.924 54.9979 123.651 54.1467C120.378 53.2639 118.143 50.9626 116.948 47.2424C114.713 40.5589 111.881 35.1836 108.451 31.1167C105.052 27.0497 100.914 24.0862 96.0358 22.2262C91.1579 20.3346 85.3203 19.3887 78.5228 19.3887C68.1062 19.3887 59.5307 21.7375 52.7961 26.435C46.0931 31.1009 41.168 37.4534 38.021 45.4927C34.9055 53.5319 33.2691 62.7534 33.1117 73.1571C32.9229 85.5156 34.6537 96.2188 38.3042 105.267C41.9863 114.283 47.5249 121.251 54.9203 126.169C62.3472 131.055 71.4421 133.499 82.2047 133.499C86.0441 133.499 89.4743 133.168 92.4954 132.505C95.548 131.844 98.3488 130.977 100.898 129.905C103.227 128.928 104.879 127.697 105.854 126.216C106.861 124.734 107.365 122.701 107.365 120.116V113.779C107.365 108.861 107.097 105.33 106.562 103.186C106.028 101.011 104.958 99.3872 103.353 98.3152C101.779 97.2119 99.0569 96.1085 95.1861 95.0051C91.8188 93.9962 89.6946 91.9785 88.8134 88.952C87.9323 85.9254 88.4201 83.1037 90.2767 80.487C92.165 77.8388 94.9973 76.4674 98.7736 76.3729C104.659 76.3099 111.251 76.2783 118.552 76.2783C125.854 76.2783 132.604 76.3099 138.803 76.3729C142.17 76.436 144.766 77.6655 146.592 80.0615C148.449 82.4259 149.125 85.0585 148.622 87.9588C148.149 90.8278 146.513 92.9085 143.713 94.2011C141.573 95.1153 139.984 96.2031 138.945 97.4641C137.907 98.6936 137.183 100.585 136.774 103.139C136.365 105.693 136.16 109.491 136.16 114.536V125.743C136.16 128.108 135.798 130.236 135.074 132.128C134.35 133.988 133.312 135.595 131.959 136.951C130.636 138.307 129.047 139.441 127.191 140.356C121.81 142.941 116.538 145.085 111.377 146.787C106.216 148.49 100.961 149.766 95.6109 150.618C90.2925 151.468 84.7381 151.894 78.9476 151.894Z" fill="#161616"/>
<path d="M147.697 148.962C144.582 148.804 142.111 147.606 140.286 145.368C138.492 143.13 137.832 140.687 138.304 138.038C138.775 135.358 140.46 133.341 143.354 131.985C146.218 130.851 148.311 129.637 149.632 128.344C150.955 127.02 151.883 125.049 152.418 122.433C152.984 119.816 153.33 115.812 153.456 110.421C153.52 106.323 153.551 102.429 153.551 98.7407C153.551 95.0206 153.52 91.1744 153.456 87.2021C153.456 85.5627 153.44 84.3331 153.409 83.5134C153.346 79.8878 153.015 77.0821 152.418 75.0959C151.851 73.0782 150.939 71.4546 149.679 70.225C148.421 68.964 146.502 67.5768 143.921 66.0635C141.624 64.6763 140.16 62.9424 139.531 60.8617C138.901 58.7809 139.09 56.7318 140.098 54.7141C141.135 52.6648 142.835 51.0254 145.195 49.7959C147.429 48.661 149.648 47.526 151.851 46.391C154.148 45.2246 156.351 44.137 158.46 43.1281C160.6 42.1193 162.724 41.1577 164.833 40.2434C166.846 39.3607 168.578 38.9035 170.025 38.8719C171.505 38.8404 172.763 39.1557 173.802 39.8178C174.84 40.4798 175.721 41.4571 176.445 42.7498C177.578 44.5152 178.679 45.792 179.75 46.5802C180.851 47.3369 182.125 47.6521 183.573 47.526C185.052 47.3684 186.846 46.6748 188.955 45.4452C191.598 43.932 193.848 42.7183 195.705 41.8039C197.593 40.8581 199.497 40.1172 201.416 39.5813C203.367 39.0454 205.334 38.7773 207.317 38.7773C216.57 38.7773 222.218 42.261 224.263 49.2284C226.31 56.1957 224.783 62.2646 219.685 67.4349C214.586 72.5738 208.151 72.9206 200.378 68.4754C196.854 66.3946 193.612 65.7483 190.654 66.5365C187.695 67.2931 185.335 69.3897 183.573 72.826C181.81 76.2624 180.882 80.8022 180.788 86.4454C180.63 94.1063 180.63 102.067 180.788 110.327C180.882 115.875 181.197 119.832 181.732 122.197C182.299 124.529 183.432 126.263 185.13 127.398C186.862 128.533 189.836 129.62 194.052 130.662C197.766 131.639 200.158 133.593 201.227 136.525C202.297 139.425 201.92 142.185 200.094 144.801C198.301 147.418 195.547 148.804 191.833 148.962C183.966 149.183 176.13 149.293 168.325 149.293C160.521 149.293 153.645 149.183 147.697 148.962Z" fill="#161616"/>
<path d="M243.247 151.894C237.299 151.894 232.185 150.886 227.906 148.868C223.657 146.85 220.416 143.981 218.182 140.261C215.947 136.509 214.83 132.127 214.83 127.115C214.83 122.354 215.852 118.24 217.898 114.772C219.974 111.304 223.059 108.23 227.151 105.551C231.242 102.871 236.623 100.238 243.294 97.6531C245.057 96.9595 246.362 96.4551 247.212 96.1398C248.062 95.793 249.336 95.2885 251.036 94.6266C253.774 93.5546 256.165 92.6247 258.211 91.8365C260.287 91.0483 262.144 90.3389 263.781 89.7084C265.795 88.9833 267.368 88.1005 268.501 87.0602C269.635 86.0199 270.406 84.8376 270.815 83.5134C271.255 82.1893 271.475 80.5973 271.475 78.7373V73.3934C271.475 70.4615 271.019 67.9237 270.107 65.7798C269.194 63.6045 267.699 61.9179 265.622 60.7199C263.545 59.4903 260.823 58.8913 257.456 58.9228C255.316 58.9859 253.365 59.3169 251.602 59.9159C249.872 60.4834 248.487 61.3504 247.448 62.5169C246.409 63.6833 245.844 65.1493 245.749 66.9148C245.717 67.6399 245.701 68.759 245.701 70.2723C245.765 70.9344 245.796 71.7541 245.796 72.7314C245.67 79.478 243.184 84.2701 238.338 87.1075C233.492 89.9449 228.614 90.2917 223.704 88.1478C218.826 85.9726 216.388 81.9528 216.388 76.0889C216.388 70.5404 218.874 64.8498 223.846 59.0174C228.818 53.185 235.112 48.3614 242.727 44.5468C250.375 40.7006 257.896 38.7773 265.292 38.7773C271.208 38.7773 276.732 40.07 281.86 42.6552C287.022 45.2088 291.16 49.0708 294.276 54.2411C297.422 59.4114 298.964 65.7168 298.902 73.157C298.807 85.011 298.792 97.3693 298.855 110.232C298.886 113.07 298.902 115.592 298.902 117.798C298.902 119.974 299.216 121.676 299.845 122.905C300.506 124.136 301.482 124.908 302.772 125.223C304.094 125.538 305.73 125.381 307.681 124.75C309.884 124.308 311.899 124.624 313.724 125.696C315.55 126.768 316.745 128.391 317.311 130.566C317.878 132.71 317.5 135.106 316.178 137.754C314.983 140.182 313.298 142.468 311.128 144.612C308.956 146.756 306.344 148.505 303.292 149.861C300.271 151.216 296.951 151.894 293.331 151.894C290.153 151.894 287.289 151.359 284.74 150.286C282.191 149.246 279.831 147.653 277.659 145.511C276.589 144.534 275.488 143.855 274.355 143.477C273.222 143.099 271.964 143.051 270.579 143.336C269.194 143.588 267.652 144.202 265.953 145.179C263.277 146.787 260.87 148.064 258.73 149.01C256.622 149.955 254.324 150.665 251.838 151.138C249.352 151.642 246.488 151.894 243.247 151.894ZM253.868 130.283C257.172 130.283 260.162 129.464 262.837 127.824C265.511 126.153 267.589 124.088 269.068 121.629C270.579 119.17 271.334 116.774 271.334 114.441V111.131C271.334 109.554 271.05 108.388 270.484 107.631C269.949 106.875 269.084 106.48 267.888 106.449C266.724 106.386 265.134 106.67 263.12 107.3C258.557 108.75 254.954 110.311 252.31 111.982C249.698 113.653 247.857 115.355 246.787 117.089C245.717 118.823 245.182 120.636 245.182 122.528C245.182 124.136 245.497 125.522 246.127 126.689C246.756 127.855 247.716 128.754 249.006 129.384C250.297 129.984 251.917 130.283 253.868 130.283Z" fill="#161616"/>
<path d="M319.401 202.253C310.526 202.253 304.782 199.069 302.17 192.7C299.558 186.364 300.409 180.704 304.72 175.723C309.031 170.743 315.089 169.969 322.894 173.407C325.097 174.384 326.985 174.904 328.558 174.966C330.163 175.029 331.626 174.494 332.948 173.359C334.271 172.256 335.498 170.395 336.631 167.778C337.323 166.234 338.016 164.657 338.707 163.05C339.399 161.473 340.092 159.865 340.784 158.227C341.54 156.429 342.295 154.633 343.05 152.835C343.837 150.975 344.309 149.257 344.467 147.681C344.655 146.104 344.545 144.449 344.136 142.715C343.758 140.95 343.035 138.9 341.964 136.567C341.115 134.613 340.376 132.973 339.746 131.649C339.149 130.325 338.44 128.749 337.621 126.92C331.769 113.994 327.095 103.748 323.602 96.1821C320.109 88.5842 316.411 80.7814 312.509 72.7737C311.156 69.9678 309.944 67.7924 308.873 66.2477C307.836 64.7029 306.623 63.3945 305.24 62.3227C303.886 61.2507 302.045 60.1473 299.716 59.0124C296.979 57.6567 295.342 55.5917 294.807 52.8174C294.272 50.0115 294.917 47.4737 296.742 45.2037C298.536 42.9339 301.164 41.7674 304.625 41.7043C310.605 41.6097 316.647 41.5625 322.753 41.5625C328.889 41.5625 335.576 41.6097 342.814 41.7043C346.118 41.7674 348.605 42.8708 350.272 45.0146C351.972 47.1583 352.618 49.5702 352.209 52.2499C351.798 54.9297 350.43 56.9632 348.102 58.3503C345.49 59.7375 343.633 61.1403 342.531 62.559C341.43 63.9462 340.941 65.5541 341.068 67.3826C341.194 69.1796 341.87 71.4496 343.097 74.1924L345.835 80.3399C347.188 83.3665 348.668 86.6768 350.272 90.2709C351.878 93.8333 353.561 97.522 355.324 101.337C356.236 103.197 357.353 104.458 358.675 105.12C359.996 105.75 361.319 105.703 362.641 104.978C363.962 104.253 365.063 102.897 365.944 100.911C366.29 100.091 366.652 99.2716 367.03 98.4519C369.076 93.723 370.949 89.3093 372.647 85.2108C374.379 81.0808 375.92 77.2819 377.274 73.814C378.312 71.1973 378.816 68.9748 378.785 67.1461C378.785 65.3176 378.202 63.6941 377.038 62.2754C375.905 60.8567 374.064 59.501 371.514 58.2084C369.28 56.8843 368.006 54.8982 367.691 52.2499C367.376 49.6017 368.006 47.2056 369.579 45.0619C371.184 42.8866 373.418 41.7674 376.282 41.7044C381.538 41.6413 386.762 41.6098 391.954 41.6097C397.178 41.5782 401.884 41.6097 406.069 41.7043C409.971 41.7988 412.835 43.0442 414.66 45.4402C416.517 47.8046 417.098 50.4057 416.407 53.243C415.715 56.0804 413.968 58.0823 411.167 59.2488C408.838 60.1315 406.997 60.967 405.644 61.7552C404.322 62.5433 403.173 63.5206 402.197 64.6871C401.223 65.822 400.262 67.3669 399.319 69.3215C399.035 69.8574 398.767 70.425 398.516 71.024C398.264 71.5914 397.996 72.1904 397.713 72.821C392.835 84.0444 387.973 95.2678 383.127 106.491C380.704 112.103 378.894 116.264 377.699 118.976C376.535 121.686 374.788 125.769 372.459 131.224C370.444 135.922 368.446 140.603 366.464 145.269C364.481 149.935 362.499 154.616 360.516 159.314C357.967 165.304 355.733 170.6 353.813 175.203C351.138 181.541 347.912 186.726 344.136 190.762C340.36 194.797 336.378 197.713 332.193 199.51C328.008 201.339 323.743 202.253 319.401 202.253Z" fill="#161616"/>
<path d="M411.955 148.962C408.84 148.868 406.385 147.701 404.592 145.462C402.798 143.224 402.137 140.765 402.608 138.085C403.081 135.406 404.749 133.403 407.613 132.08C410.602 130.786 412.726 129.494 413.985 128.202C415.275 126.909 416.173 125.001 416.676 122.48C417.179 119.926 417.494 115.906 417.62 110.421C417.777 103.39 417.746 94.4209 417.525 83.5127C417.431 79.7927 417.132 76.9868 416.629 75.0952C416.157 73.2036 415.291 71.6588 414.032 70.4608C412.805 69.2313 410.775 67.7495 407.943 66.0156C405.74 64.5654 404.324 62.7998 403.694 60.7192C403.066 58.6384 403.222 56.6049 404.167 54.6188C405.11 52.6326 406.699 51.072 408.934 49.9371C410.728 49.0543 412.348 48.2504 413.796 47.5254C415.275 46.7687 416.928 45.9648 418.753 45.1135C422.718 43.1589 426.069 41.5511 428.808 40.2899C430.884 39.3442 432.694 38.8556 434.236 38.824C435.778 38.761 437.053 39.092 438.059 39.8171C439.098 40.5422 439.963 41.5825 440.655 42.9382C441.473 44.5145 442.544 45.6968 443.866 46.4849C445.187 47.2416 446.746 47.541 448.538 47.3835C450.333 47.2258 452.316 46.5795 454.486 45.4446C460.119 42.4495 465.69 40.4949 471.197 39.5807C476.736 38.6664 481.866 38.8556 486.586 40.1482C491.307 41.4407 495.272 43.8052 498.481 47.2416C500.559 49.3854 502.872 50.4888 505.421 50.5519C507.97 50.5834 510.991 49.5745 514.484 47.5254C523.674 42.0713 532.878 39.4073 542.099 39.5334C551.32 39.6279 558.857 42.5284 564.71 48.2346C570.594 53.941 573.459 61.9172 573.302 72.1632C573.206 78.2794 573.144 84.6951 573.112 91.4101C573.112 98.1253 573.159 104.194 573.255 109.617C573.317 115.575 573.553 119.831 573.963 122.385C574.403 124.939 575.253 126.846 576.511 128.107C577.802 129.336 580.021 130.519 583.167 131.654C586.125 132.852 587.888 134.822 588.454 137.566C589.021 140.308 588.375 142.845 586.519 145.178C584.693 147.543 582.081 148.804 578.683 148.962C572.829 149.183 566.552 149.292 559.848 149.292C553.177 149.292 546.63 149.183 540.211 148.962C537.127 148.835 534.688 147.653 532.894 145.415C531.101 143.177 530.44 140.718 530.911 138.037C531.414 135.358 533.114 133.356 536.01 132.031C539.062 130.739 541.218 129.447 542.476 128.154C543.735 126.83 544.585 124.892 545.026 122.337C545.498 119.752 545.781 115.559 545.875 109.759C545.969 105.03 546.017 99.7489 546.017 93.9165C546.017 88.0525 545.954 82.362 545.828 76.8449C545.734 71.9584 544.286 67.9545 541.485 64.8334C538.716 61.7122 535.176 59.9941 530.864 59.6787C526.585 59.332 522.289 60.593 517.978 63.462C514.893 65.4797 512.659 68.1909 511.275 71.5957C509.921 75.0006 509.197 79.2725 509.103 84.4113C508.882 93.2387 508.867 101.798 509.056 110.09V110.894C509.182 116.316 509.481 120.257 509.953 122.716C510.456 125.144 511.353 126.972 512.643 128.202C513.965 129.431 516.184 130.661 519.299 131.89C522.132 133.12 523.799 135.106 524.302 137.849C524.807 140.56 524.114 143.05 522.226 145.321C520.369 147.621 517.757 148.835 514.39 148.962C508.599 149.087 502.337 149.151 495.603 149.151C488.9 149.151 482.338 149.087 475.918 148.962C472.802 148.835 470.363 147.637 468.601 145.368C466.871 143.098 466.288 140.607 466.855 137.896C467.452 135.153 469.262 133.104 472.283 131.748C475.147 130.55 477.161 129.352 478.325 128.154C479.521 126.924 480.34 125.033 480.78 122.48C481.252 119.926 481.551 115.749 481.677 109.948C481.771 105.313 481.819 100.048 481.819 94.1529C481.819 88.2575 481.755 82.3621 481.63 76.4666C481.535 71.643 480.072 67.718 477.239 64.6915C474.439 61.6649 470.882 60.0098 466.572 59.726C462.26 59.4108 457.98 60.6876 453.731 63.5565C451.561 65.0067 449.829 66.7879 448.538 68.9002C447.249 71.0125 446.337 73.3455 445.801 75.8991C445.267 78.4212 444.967 81.2744 444.905 84.4586C444.809 89.3137 444.762 93.6643 444.762 97.5105C444.794 101.357 444.873 105.566 444.999 110.137C445.156 116.001 445.455 120.178 445.895 122.669C446.368 125.128 447.249 126.972 448.538 128.202C449.829 129.431 452.111 130.739 455.384 132.127C458.121 133.419 459.695 135.406 460.104 138.085C460.514 140.765 459.806 143.208 457.98 145.415C456.155 147.653 453.684 148.835 450.569 148.962C444.338 149.087 437.84 149.151 431.074 149.151C424.339 149.151 417.967 149.087 411.955 148.962Z" fill="#161616"/>
<path d="M608.511 151.894C602.563 151.894 597.449 150.886 593.169 148.868C588.92 146.85 585.68 143.981 583.445 140.261C581.211 136.509 580.094 132.127 580.094 127.115C580.094 122.354 581.116 118.24 583.162 114.772C585.239 111.304 588.323 108.23 592.414 105.551C596.505 102.871 601.886 100.238 608.558 97.6531C610.321 96.9595 611.626 96.4551 612.475 96.1398C613.326 95.7931 614.6 95.2885 616.3 94.6266C619.037 93.5546 621.43 92.6247 623.475 91.8365C625.552 91.0483 627.409 90.3389 629.045 89.7084C631.059 88.9833 632.633 88.1005 633.766 87.0602C634.899 86.0199 635.67 84.8376 636.079 83.5134C636.519 82.1893 636.74 80.5973 636.74 78.7373V73.3934C636.74 70.4615 636.283 67.9237 635.371 65.7798C634.457 63.6045 632.962 61.9179 630.886 60.7199C628.809 59.4903 626.087 58.8913 622.719 58.9228C620.579 58.9859 618.628 59.3169 616.866 59.9159C615.136 60.4834 613.751 61.3504 612.712 62.5169C611.673 63.6833 611.107 65.1493 611.013 66.9148C610.982 67.6399 610.966 68.759 610.966 70.2723C611.029 70.9344 611.06 71.7541 611.06 72.7314C610.934 79.478 608.448 84.2701 603.602 87.1075C598.755 89.9449 593.878 90.2917 588.969 88.1478C584.09 85.9726 581.651 81.9528 581.651 76.0889C581.651 70.5403 584.138 64.8498 589.11 59.0174C594.082 53.185 600.376 48.3614 607.992 44.5467C615.639 40.7005 623.16 38.7775 630.555 38.7773C636.472 38.7773 641.995 40.07 647.124 42.6552C652.285 45.2088 656.423 49.0708 659.54 54.2411C662.686 59.4114 664.228 65.7168 664.165 73.157C664.071 85.011 664.055 97.3693 664.118 110.232C664.15 113.069 664.165 115.592 664.165 117.798C664.165 119.974 664.48 121.676 665.11 122.905C665.77 124.136 666.746 124.908 668.036 125.223C669.358 125.538 670.994 125.381 672.946 124.75C675.148 124.308 677.163 124.624 678.988 125.696C680.813 126.768 682.009 128.391 682.575 130.566C683.142 132.71 682.764 135.106 681.442 137.754C680.246 140.182 678.563 142.468 676.392 144.612C674.22 146.756 671.608 148.505 668.556 149.861C665.535 151.216 662.214 151.894 658.595 151.894C655.417 151.894 652.553 151.359 650.004 150.286C647.454 149.246 645.095 147.653 642.923 145.511C641.853 144.534 640.751 143.855 639.618 143.477C638.486 143.099 637.227 143.051 635.842 143.336C634.457 143.588 632.915 144.202 631.217 145.179C628.542 146.787 626.134 148.064 623.994 149.01C621.886 149.955 619.589 150.665 617.102 151.138C614.616 151.642 611.753 151.894 608.511 151.894ZM619.131 130.283C622.436 130.283 625.426 129.464 628.1 127.824C630.776 126.153 632.853 124.088 634.332 121.629C635.842 119.17 636.597 116.774 636.597 114.441V111.131C636.597 109.554 636.314 108.388 635.748 107.631C635.212 106.875 634.347 106.48 633.152 106.449C631.988 106.386 630.399 106.67 628.384 107.3C623.821 108.75 620.217 110.311 617.574 111.982C614.962 113.653 613.121 115.355 612.051 117.089C610.981 118.823 610.446 120.636 610.446 122.528C610.446 124.136 610.761 125.522 611.391 126.689C612.019 127.855 612.98 128.754 614.269 129.384C615.56 129.984 617.181 130.283 619.131 130.283Z" fill="#161616"/>
<path d="M709.096 151.901C703.148 151.901 698.051 150.656 693.802 148.166C689.554 145.674 686.328 142.348 684.125 138.187C681.953 133.994 680.869 129.391 680.869 124.379C680.869 116.339 680.9 105.037 680.963 90.4718C681.025 82.2749 681.057 76.4583 681.057 73.0218C681.088 69.9638 680.9 67.7254 680.491 66.3067C680.081 64.8565 679.326 63.7373 678.224 62.9491C677.155 62.1609 675.314 61.2783 672.702 60.3009C670.624 59.4812 669.192 58.1886 668.406 56.4232C667.588 54.6262 667.431 52.7346 667.934 50.7483C668.437 48.7306 669.492 46.9652 671.096 45.4519C674.999 41.8264 678.555 38.4531 681.765 35.332C685.007 32.1792 688.484 28.7429 692.197 25.0228C694.117 23.0997 696.21 22.012 698.476 21.7598C700.742 21.4761 702.739 21.9648 704.471 23.2258C706.233 24.4553 707.351 26.1892 707.822 28.4276L708.483 36.4669C708.64 37.6649 708.971 38.658 709.474 39.4462C710.01 40.2029 710.702 40.7544 711.552 41.1013C712.401 41.4166 713.393 41.5742 714.525 41.5742C719.969 41.5742 724.044 41.5584 726.752 41.5269C731.409 41.4638 734.651 43.2293 736.476 46.8233C738.333 50.4174 738.333 53.9957 736.476 57.5581C734.619 61.1206 731.377 62.8545 726.752 62.7599C725.398 62.7284 724.076 62.7126 722.786 62.7126C721.528 62.7126 720.268 62.7126 719.01 62.7126C717.94 62.6812 716.304 62.6654 714.101 62.6654C712.904 62.6654 711.882 62.8861 711.031 63.3275C710.214 63.7688 709.585 64.4151 709.143 65.2664C708.734 66.1175 708.53 67.0949 708.53 68.1983C708.53 73.148 708.499 80.1626 708.435 89.2423C708.372 100.655 708.341 109.514 708.341 115.819C708.341 119.539 709.301 122.298 711.221 124.094C713.172 125.892 715.737 126.664 718.916 126.412C722.094 126.128 725.461 124.915 729.018 122.771C731.409 121.479 733.659 121.321 735.768 122.298C737.875 123.244 739.26 124.915 739.922 127.311C740.614 129.707 740.236 132.213 738.789 134.829C737.404 137.352 735.374 139.905 732.698 142.49C730.024 145.076 726.656 147.283 722.597 149.112C718.57 150.971 714.069 151.901 709.096 151.901Z" fill="#161616"/>
<path d="M770.422 151.901C764.475 151.901 759.377 150.656 755.128 148.166C750.88 145.674 747.654 142.348 745.451 138.187C743.281 133.994 742.195 129.391 742.195 124.379C742.195 116.339 742.226 105.037 742.289 90.4718C742.352 82.2749 742.383 76.4583 742.383 73.0218C742.414 69.9638 742.226 67.7254 741.817 66.3067C741.408 64.8565 740.653 63.7373 739.551 62.9491C738.481 62.1609 736.64 61.2783 734.028 60.3009C731.951 59.4812 730.519 58.1886 729.732 56.4232C728.914 54.6262 728.757 52.7346 729.26 50.7483C729.763 48.7306 730.818 46.9652 732.424 45.4519C736.325 41.8264 739.882 38.4531 743.091 35.332C746.333 32.1792 749.81 28.7429 753.523 25.0228C755.443 23.0997 757.536 22.012 759.802 21.7598C762.068 21.4761 764.066 21.9648 765.797 23.2258C767.56 24.4553 768.677 26.1892 769.148 28.4276L769.81 36.4669C769.966 37.6649 770.297 38.658 770.8 39.4462C771.336 40.2027 772.028 40.7544 772.878 41.1013C773.727 41.4166 774.719 41.5742 775.852 41.5742C781.296 41.5742 785.371 41.5584 788.078 41.5269C792.735 41.4638 795.977 43.2294 797.802 46.8233C799.659 50.4174 799.659 53.9957 797.802 57.5581C795.945 61.1206 792.703 62.8545 788.078 62.7599C786.724 62.7284 785.402 62.7126 784.112 62.7126C782.854 62.7126 781.594 62.7126 780.336 62.7126C779.266 62.6812 777.63 62.6654 775.427 62.6654C774.231 62.6654 773.208 62.8861 772.359 63.3275C771.54 63.7688 770.911 64.4151 770.47 65.2664C770.061 66.1175 769.857 67.0949 769.857 68.1983C769.857 73.148 769.825 80.1626 769.763 89.2423C769.699 100.655 769.667 109.514 769.667 115.819C769.667 119.539 770.628 122.298 772.547 124.094C774.498 125.892 777.063 126.664 780.242 126.412C783.42 126.128 786.787 124.915 790.344 122.771C792.735 121.479 794.985 121.321 797.094 122.298C799.202 123.244 800.587 124.915 801.248 127.311C801.94 129.707 801.563 132.213 800.115 134.829C798.73 137.352 796.701 139.905 794.026 142.49C791.35 145.076 787.983 147.283 783.924 149.112C779.896 150.971 775.396 151.901 770.422 151.901Z" fill="#161616"/>
<path d="M844.424 151.894C834.322 151.894 825.291 149.53 817.329 144.801C809.399 140.072 803.199 133.467 798.73 124.986C794.293 116.506 792.074 106.812 792.074 95.9034C792.074 84.743 794.576 74.8279 799.58 66.1581C804.584 57.4568 811.223 50.726 819.501 45.9655C827.777 41.1734 836.604 38.7773 845.983 38.7773C854.07 38.7773 861.481 40.5744 868.216 44.1684C874.981 47.7624 880.316 52.8066 884.218 59.3012C888.121 65.7956 890.009 73.1728 889.883 81.4327C889.883 83.9234 889.395 86.0355 888.419 87.7696C887.476 89.4719 886.075 90.7645 884.218 91.6473C882.393 92.4985 880.143 92.9241 877.468 92.9241H830.83C828.879 92.9241 827.29 93.2708 826.062 93.9644C824.835 94.6266 823.97 95.6039 823.465 96.8964C822.994 98.189 822.884 99.7654 823.135 101.625C823.859 107.678 825.496 112.754 828.045 116.853C830.593 120.919 833.788 123.931 837.627 125.885C841.498 127.84 845.762 128.817 850.42 128.817C853.22 128.817 855.927 128.486 858.539 127.824C861.151 127.13 863.715 126.026 866.233 124.513C868.751 122.969 871.19 120.935 873.549 118.413C875.942 115.954 878.585 114.914 881.481 115.292C884.375 115.67 886.484 117.136 887.806 119.69C889.127 122.213 888.955 125.033 887.286 128.155C884.108 134.082 880.111 138.811 875.296 142.341C870.481 145.841 865.431 148.3 860.144 149.719C854.888 151.169 849.648 151.894 844.424 151.894ZM853.676 75.6161C854.841 75.6161 855.817 75.3955 856.603 74.954C857.39 74.4811 857.973 73.8191 858.35 72.9679C858.759 72.0851 858.916 71.0447 858.822 69.8468C858.57 66.9148 857.705 64.4557 856.226 62.4696C854.778 60.4519 852.921 58.9543 850.655 57.9771C848.39 56.9997 845.967 56.5111 843.387 56.5111C840.774 56.5111 838.21 57.0155 835.692 58.0244C833.205 59.0332 831.002 60.5622 829.083 62.6114C827.195 64.6291 825.873 67.1039 825.118 70.0358C824.866 71.1393 824.866 72.1166 825.118 72.9679C825.402 73.7876 825.905 74.4339 826.629 74.9067C827.353 75.3796 828.218 75.6161 829.225 75.6161H853.676Z" fill="#161616"/>
<path d="M891.902 148.962C888.787 148.804 886.318 147.606 884.492 145.368C882.698 143.13 882.037 140.686 882.509 138.038C882.982 135.358 884.665 133.341 887.56 131.985C890.424 130.851 892.516 129.637 893.839 128.344C895.16 127.02 896.089 125.049 896.623 122.433C897.19 119.816 897.536 115.812 897.662 110.421C897.725 106.323 897.756 102.429 897.756 98.7406C897.756 95.0205 897.725 91.1742 897.662 87.202C897.662 85.5626 897.646 84.3331 897.615 83.5133C897.552 79.8879 897.222 77.082 896.623 75.0958C896.057 73.0781 895.144 71.4545 893.886 70.2249C892.626 68.9639 890.707 67.5767 888.126 66.0634C885.829 64.6762 884.365 62.9423 883.737 60.8616C883.107 58.7808 883.295 56.7316 884.303 54.7139C885.341 52.6646 887.04 51.0253 889.401 49.7958C891.636 48.6609 893.854 47.5259 896.057 46.3909C898.354 45.2245 900.557 44.1367 902.665 43.1279C904.805 42.1191 906.93 41.1576 909.038 40.2432C911.052 39.3606 912.783 38.9034 914.23 38.8718C915.709 38.8403 916.969 39.1556 918.007 39.8177C919.045 40.4797 919.927 41.457 920.65 42.7496C921.784 44.5151 922.884 45.7919 923.954 46.5801C925.056 47.3368 926.331 47.652 927.779 47.5259C929.258 47.3682 931.051 46.6746 933.16 45.4451C935.803 43.9319 938.053 42.7181 939.91 41.8038C941.798 40.858 943.702 40.1171 945.621 39.5812C947.573 39.0453 949.54 38.7773 951.522 38.7773C960.775 38.7773 966.423 42.2609 968.469 49.2283C970.514 56.1956 968.988 62.2645 963.89 67.4348C958.792 72.5736 952.357 72.9204 944.584 68.4752C941.059 66.3945 937.817 65.7482 934.86 66.5364C931.901 67.2929 929.54 69.3895 927.779 72.8259C926.016 76.2623 925.087 80.802 924.993 86.4453C924.836 94.1062 924.836 102.067 924.993 110.327C925.087 115.875 925.402 119.832 925.938 122.197C926.504 124.529 927.637 126.263 929.337 127.398C931.067 128.533 934.041 129.62 938.258 130.661C941.972 131.639 944.363 133.593 945.433 136.525C946.503 139.425 946.126 142.184 944.3 144.801C942.506 147.418 939.753 148.804 936.04 148.962C928.172 149.183 920.336 149.293 912.532 149.293C904.727 149.293 897.85 149.183 891.902 148.962Z" fill="#161616"/>
</g>
<defs>
<clipPath id="clip0_206_4422">
<rect width="970" height="202.687" fill="white"/>
</clipPath>
</defs>
</svg>
